<?xml version="1.0" encoding="UTF-8" standalone="no"?>
<svg
   xmlns:dc="http://purl.org/dc/elements/1.1/"
   xmlns:cc="http://creativecommons.org/ns#"
   xmlns:rdf="http://www.w3.org/1999/02/22-rdf-syntax-ns#"
   xmlns:svg="http://www.w3.org/2000/svg"
   xmlns="http://www.w3.org/2000/svg"
   xmlns:sodipodi="http://sodipodi.sourceforge.net/DTD/sodipodi-0.dtd"
   xmlns:inkscape="http://www.inkscape.org/namespaces/inkscape"
   width="297mm"
   height="210mm"
   viewBox="0 0 297 210"
   version="1.1"
   id="svg54"
   sodipodi:docname="batman.svg"
   inkscape:version="1.0 (4035a4fb49, 2020-05-01)">
  <defs
     id="defs48" />
  <sodipodi:namedview
     id="base"
     pagecolor="#ffffff"
     bordercolor="#666666"
     borderopacity="1.0"
     inkscape:pageopacity="0.0"
     inkscape:pageshadow="2"
     inkscape:zoom="0.66347774"
     inkscape:cx="700.55179"
     inkscape:cy="442.24236"
     inkscape:document-units="mm"
     inkscape:current-layer="layer1"
     inkscape:document-rotation="0"
     showgrid="false"
     inkscape:snap-global="false"
     inkscape:window-width="1920"
     inkscape:window-height="1017"
     inkscape:window-x="-8"
     inkscape:window-y="-8"
     inkscape:window-maximized="1" />
  <metadata
     id="metadata51">
    <rdf:RDF>
      <cc:Work
         rdf:about="">
        <dc:format>image/svg+xml</dc:format>
        <dc:type
           rdf:resource="http://purl.org/dc/dcmitype/StillImage" />
        <dc:title></dc:title>
      </cc:Work>
    </rdf:RDF>
  </metadata>
  <g
     inkscape:label="Lag 1"
     inkscape:groupmode="layer"
     id="layer1">
    <rect
       style="fill:#000000;stroke-width:0.261871"
       id="rect56"
       width="297"
       height="210"
       x="0"
       y="0" />
    <path
       style="fill:#ffff00;stroke-width:0.265455"
       id="path60"
       sodipodi:type="arc"
       sodipodi:cx="150"
       sodipodi:cy="95"
       sodipodi:rx="125"
       sodipodi:ry="70"
       sodipodi:start="0"
       sodipodi:end="6.2555904"
       sodipodi:open="true"
       sodipodi:arc-type="arc"
       d="M 275,95 A 125,70 0 0 1 150.86233,164.99833 125,70 0 0 1 25.011898,95.965791 125,70 0 0 1 147.41316,25.014991 125,70 0 0 1 274.95241,93.068602" />
    <path
       style="fill:#000000;stroke-width:0.27618"
       id="path62"
       sodipodi:type="arc"
       sodipodi:cx="150"
       sodipodi:cy="95.326233"
       sodipodi:rx="115"
       sodipodi:ry="59.673775"
       sodipodi:start="0"
       sodipodi:end="6.2555917"
       sodipodi:open="true"
       sodipodi:arc-type="arc"
       d="M 265,95.326233 A 115,59.673775 0 0 1 150.79331,154.99859 115,59.673775 0 0 1 35.010945,96.149514 115,59.673775 0 0 1 147.62022,35.665237 a 115,59.673775 0 0 1 117.336,58.01459" />
    <rect
       style="fill:#ffff00;stroke-width:0.278442"
       id="rect66"
       width="18.550585"
       height="18.186525"
       x="145.2384"
       y="-62.726906"
       transform="matrix(0.836016,0.54870506,-0.51245198,0.85871588,0,0)" />
    <rect
       style="fill:#ffff00;stroke-width:0.556671"
       id="rect68"
       width="16.501318"
       height="15.809974"
       x="102.30257"
       y="95.276459"
       transform="matrix(0.87793278,-0.47878391,0.4395724,0.89820716,0,0)"
       inkscape:transform-center-x="10.743388"
       inkscape:transform-center-y="14.310699" />
    <rect
       style="fill:#ffff00;stroke-width:0.264583"
       id="rect70"
       width="20.472313"
       height="8.7196999"
       x="139.12279"
       y="42.482239" />
    <path
       style="fill:#ffff00;stroke-width:0.264583"
       id="path82"
       sodipodi:type="arc"
       sodipodi:cx="193.05234"
       sodipodi:cy="58.041882"
       sodipodi:rx="21.644381"
       sodipodi:ry="19.897299"
       sodipodi:start="0"
       sodipodi:end="6.2555917"
       sodipodi:open="true"
       sodipodi:arc-type="arc"
       d="M 214.69672,58.041882 A 21.644381,19.897299 0 0 1 193.20165,77.938707 21.644381,19.897299 0 0 1 171.41002,58.316392 21.644381,19.897299 0 0 1 192.60443,38.148844 21.644381,19.897299 0 0 1 214.68848,57.492913" />
    <path
       d="M 126.08094,56.683044 A 21.644381,19.897299 0 0 1 104.58587,76.57987 21.644381,19.897299 0 0 1 82.794241,56.957555 21.644381,19.897299 0 0 1 103.98866,36.790006 21.644381,19.897299 0 0 1 126.0727,56.134076"
       sodipodi:arc-type="arc"
       sodipodi:open="true"
       sodipodi:end="6.2555917"
       sodipodi:start="0"
       sodipodi:ry="19.897299"
       sodipodi:rx="21.644381"
       sodipodi:cy="56.683044"
       sodipodi:cx="104.43656"
       sodipodi:type="arc"
       id="path82-4"
       style="fill:#ffff00;stroke-width:0.264583" />
    <path
       d="m 145.77618,22.022621 a 5.2822237,14.956399 0 0 1 -5.24578,14.956043 5.2822237,14.956399 0 0 1 -5.31816,-14.749699 5.2822237,14.956399 0 0 1 5.17241,-15.1595401 5.2822237,14.956399 0 0 1 5.38952,14.5405481"
       sodipodi:arc-type="arc"
       sodipodi:open="true"
       sodipodi:end="6.2555917"
       sodipodi:start="0"
       sodipodi:ry="14.956399"
       sodipodi:rx="5.2822237"
       sodipodi:cy="22.022621"
       sodipodi:cx="140.49396"
       sodipodi:type="arc"
       id="path103-3"
       style="fill:#ffff00;stroke-width:0.218914"
       transform="matrix(0.95525442,0.29578538,-0.51031054,0.8599902,0,0)"
       inkscape:transform-center-x="-6.5789973"
       inkscape:transform-center-y="4.2427549" />
    <rect
       style="fill:#ffff00;stroke-width:0.185687"
       id="rect120"
       width="19.314939"
       height="16.014902"
       x="112.78372"
       y="34.941597" />
    <path
       inkscape:transform-center-y="-3.9638033"
       inkscape:transform-center-x="-6.7507417"
       transform="matrix(0.69424349,-0.71974022,0.53808185,0.84289259,0,0)"
       style="fill:#ffff00;stroke-width:0.218914"
       id="path103-3-8"
       sodipodi:type="arc"
       sodipodi:cx="118.68304"
       sodipodi:cy="175.66673"
       sodipodi:rx="5.2822237"
       sodipodi:ry="14.956399"
       sodipodi:start="0"
       sodipodi:end="6.2555917"
       sodipodi:open="true"
       sodipodi:arc-type="arc"
       d="m 123.96526,175.66673 a 5.2822237,14.956399 0 0 1 -5.24578,14.95605 5.2822237,14.956399 0 0 1 -5.31816,-14.7497 5.2822237,14.956399 0 0 1 5.17241,-15.15954 5.2822237,14.956399 0 0 1 5.38952,14.54054" />
    <rect
       y="35.669548"
       x="168.15645"
       height="16.014902"
       width="19.314941"
       id="rect120-1"
       style="fill:#ffff00;stroke-width:0.185687" />
    <path
       style="fill:#ffff00;stroke-width:0.378822"
       id="path154"
       sodipodi:type="arc"
       sodipodi:cx="222.96146"
       sodipodi:cy="39.823902"
       sodipodi:rx="10.132699"
       sodipodi:ry="15.561734"
       sodipodi:start="0"
       sodipodi:end="6.2555917"
       sodipodi:open="true"
       sodipodi:arc-type="arc"
       d="M 233.09416,39.823902 A 10.132699,15.561734 0 0 1 223.03136,55.385266 10.132699,15.561734 0 0 1 212.82972,40.038598 10.132699,15.561734 0 0 1 222.75177,24.2655 10.132699,15.561734 0 0 1 233.0903,39.394552"
       transform="matrix(0.8470827,0.5314611,-0.58707163,0.80953499,0,0)" />
    <path
       style="fill:#ffff00;stroke-width:0.319929"
       id="path156"
       sodipodi:type="arc"
       sodipodi:cx="231.95436"
       sodipodi:cy="44.868069"
       sodipodi:rx="11.45308"
       sodipodi:ry="18.73258"
       sodipodi:start="0"
       sodipodi:end="6.2555917"
       sodipodi:open="true"
       sodipodi:arc-type="arc"
       d="M 243.40744,44.868069 A 11.45308,18.73258 0 0 1 232.03337,63.600203 11.45308,18.73258 0 0 1 220.50237,45.12651 11.45308,18.73258 0 0 1 231.71735,26.1395 11.45308,18.73258 0 0 1 243.40308,44.351235"
       transform="rotate(26.826029)" />
    <path
       style="fill:#ffff00;stroke-width:0.406789"
       id="path158"
       sodipodi:type="arc"
       sodipodi:cx="53.919559"
       sodipodi:cy="197.28163"
       sodipodi:rx="8.3602409"
       sodipodi:ry="16.525251"
       sodipodi:start="0"
       sodipodi:end="6.2555917"
       sodipodi:open="true"
       sodipodi:arc-type="arc"
       d="m 62.2798,197.28163 a 8.3602409,16.525251 0 0 1 -8.302569,16.52486 8.3602409,16.525251 0 0 1 -8.417117,-16.29687 8.3602409,16.525251 0 0 1 8.186441,-16.7497 8.3602409,16.525251 0 0 1 8.530063,16.06578"
       transform="matrix(0.90284688,-0.42996222,0.47842942,0.87812601,0,0)" />
    <path
       style="fill:#ffff00;stroke-width:0.329808"
       id="path160"
       sodipodi:type="arc"
       sodipodi:cx="11.619263"
       sodipodi:cy="190.04912"
       sodipodi:rx="11.114842"
       sodipodi:ry="19.580755"
       sodipodi:start="0"
       sodipodi:end="6.2555917"
       sodipodi:open="true"
       sodipodi:arc-type="arc"
       d="M 22.734105,190.04912 A 11.114842,19.580755 0 0 1 11.695937,209.62941 11.114842,19.580755 0 0 1 0.50547813,190.31926 11.114842,19.580755 0 0 1 11.389255,170.47256 11.114842,19.580755 0 0 1 22.729874,189.50888"
       transform="matrix(0.82520744,-0.56482978,0.59508586,0.80366213,0,0)" />
    <path
       style="fill:#ffff00;stroke-width:0.34349"
       id="path164"
       sodipodi:type="arc"
       sodipodi:cx="8.6204386"
       sodipodi:cy="170.73305"
       sodipodi:rx="12.326619"
       sodipodi:ry="19.80024"
       sodipodi:start="0"
       sodipodi:end="6.2555917"
       sodipodi:open="true"
       sodipodi:arc-type="arc"
       d="M 20.947058,170.73305 A 12.326619,19.80024 0 0 1 8.7054719,190.53282 12.326619,19.80024 0 0 1 -3.7050074,171.00622 12.326619,19.80024 0 0 1 8.3653549,150.93705 12.326619,19.80024 0 0 1 20.942365,170.18676"
       transform="rotate(-32.378729)" />
    <path
       style="fill:#ffff00;stroke-width:0.354127"
       id="path166"
       sodipodi:type="arc"
       sodipodi:cx="249.35938"
       sodipodi:cy="65.283737"
       sodipodi:rx="10.030865"
       sodipodi:ry="18.860025"
       sodipodi:start="0"
       sodipodi:end="6.2555917"
       sodipodi:open="true"
       sodipodi:arc-type="arc"
       d="M 259.39024,65.283737 A 10.030865,18.860025 0 0 1 249.42857,84.143314 10.030865,18.860025 0 0 1 239.32946,65.543937 10.030865,18.860025 0 0 1 249.1518,46.42775 10.030865,18.860025 0 0 1 259.38642,64.763387"
       transform="matrix(0.94611906,0.32381898,-0.43368097,0.90106649,0,0)" />
    <path
       style="fill:#ffff00;stroke-width:0.264583"
       id="path168"
       sodipodi:type="arc"
       sodipodi:cx="107.93072"
       sodipodi:cy="65.515503"
       sodipodi:rx="14.753119"
       sodipodi:ry="9.99718"
       sodipodi:start="0"
       sodipodi:end="6.2555917"
       sodipodi:open="true"
       sodipodi:arc-type="arc"
       d="m 122.68384,65.515503 a 14.753119,9.99718 0 0 1 -14.65135,9.996942 14.753119,9.99718 0 0 1 -14.853488,-9.859017 14.753119,9.99718 0 0 1 14.446418,-10.132964 14.753119,9.99718 0 0 1 15.0528,9.719216" />
    <path
       style="fill:#ffff00;stroke-width:0.3061"
       id="path176"
       sodipodi:type="arc"
       sodipodi:cx="189.46112"
       sodipodi:cy="64.447845"
       sodipodi:rx="14.170761"
       sodipodi:ry="13.200162"
       sodipodi:start="0"
       sodipodi:end="6.2555917"
       sodipodi:open="true"
       sodipodi:arc-type="arc"
       d="m 203.63188,64.447845 a 14.170761,13.200162 0 0 1 -14.073,13.199848 14.170761,13.200162 0 0 1 -14.26717,-13.017733 14.170761,13.200162 0 0 1 13.87616,-13.37945 14.170761,13.200162 0 0 1 14.45862,12.833142" />
    <rect
       style="fill:#ffff00;stroke-width:0.264583"
       id="rect178"
       width="3.3971002"
       height="2.6691501"
       x="108.59978"
       y="97.785553"
       transform="rotate(-22.534214)" />
    <rect
       style="fill:#ffff00;stroke-width:0.264583"
       id="rect180"
       width="2.6691501"
       height="2.1353202"
       x="138.84435"
       y="49.063828" />
    <rect
       style="fill:#000000;stroke-width:0.278518"
       id="rect182"
       width="2.5720837"
       height="1.9897308"
       x="158.35339"
       y="51.19915" />
  </g>
</svg>
